<svg id="Capa_1" enable-background="new 0 0 512 512" height="512" viewBox="0 0 512 512" width="512" xmlns="http://www.w3.org/2000/svg"><path d="m271 241c0-41.355-33.645-75-75-75-41.458 0-76 33.534-76 75 0 41.458 34.534 75 76 75 41.355 0 75-33.645 75-75zm-75 45c-24.935 0-46-20.607-46-45s21.065-45 46-45c24.813 0 45 20.187 45 45s-20.187 45-45 45z"/><path d="m272 106h-242v300h-30v45c0 24.813 20.187 45 45 45h422c24.813 0 45-20.187 45-45v-45h-30v-240h30v-150h-240zm210 345c0 8.271-6.729 15-15 15h-422c-8.271 0-15-6.729-15-15v-15h452zm-210-45h-152v-15c0-24.393 21.065-45 46-45h60c24.935 0 46 20.607 46 45zm180 0h-150v-15c0-41.458-34.534-75-76-75h-60c-41.458 0-76 33.534-76 75v15h-30v-270h212v69.271l78.541-39.271h101.459zm-150-360h180v90h-138.541l-41.459 20.729z"/><path d="m317 76h30v30h-30z"/><path d="m377 76h30v30h-30z"/><path d="m437 76h30v30h-30z"/></svg>