<svg height="682pt" viewBox="-21 -32 682.66669 682" width="682pt" xmlns="http://www.w3.org/2000/svg"><path d="m26.664062 404.914062h138.476563l-66.003906 63.703126c-6.484375 6.246093-8.355469 15.882812-4.675781 24.097656 3.6875 8.210937 12.125 13.230468 21.101562 12.542968l87.101562-6.476562v92.804688c0 14.726562 11.941407 26.664062 26.667969 26.664062h384.003907c14.726562 0 26.664062-11.9375 26.664062-26.664062v-384.003907c0-14.726562-11.9375-26.664062-26.664062-26.664062h-186.671876v-154.667969c0-14.726562-11.9375-26.667969-26.664062-26.667969h-373.335938c-14.726562 0-26.664062 11.941407-26.664062 26.667969v352c0 14.726562 11.9375 26.664062 26.664062 26.664062zm87.3125 79.042969 84.90625-82.003906.371094-.351563 110.078125-106.316406v269.628906l-69.628906-81.691406c-4.132813-4.699218-10.078125-7.394531-16.335937-7.394531-.46875 0-.925782 0-1.382813 0zm203.664063-208.210937c-7.84375-3.34375-16.933594-1.660156-23.070313 4.261718l-70.570312 68.109376v-140.535157c0-2.945312 2.386719-5.332031 5.332031-5.332031h170.667969c2.945312 0 5.332031 2.386719 5.332031 5.332031v170.667969c0 2.945312-2.386719 5.332031-5.332031 5.332031h-69.332031v-88.210937c-.007813-8.566406-5.140625-16.289063-13.027344-19.625zm301.027344-68.164063v384.003907c-.039063 2.925781-2.410157 5.292968-5.332031 5.332031h-384.003907c-2.925781-.039063-5.292969-2.40625-5.332031-5.332031v-93.867188l69.121094 81.0625c4.011718 4.734375 9.902344 7.460938 16.105468 7.46875 2.550782-.007812 5.078126-.464844 7.46875-1.355469 8.417969-3.027343 14.015626-11.027343 13.972657-19.980469v-160h69.332031c14.726562 0 26.664062-11.9375 26.664062-26.664062v-170.667969c0-1.792969-.179687-3.574219-.539062-5.332031h187.210938c2.921874.039062 5.292968 2.40625 5.332031 5.332031zm-597.335938-181.332031c.039063-2.925781 2.410157-5.292969 5.332031-5.332031h373.335938c2.929688.039062 5.292969 2.40625 5.332031 5.332031v155.207031c-1.753906-.355469-3.539062-.539062-5.332031-.539062h-170.667969c-14.726562 0-26.667969 11.9375-26.667969 26.664062v154.667969c.015626 2.011719.171876 4.019531.46875 6.003906l-15.882812 15.328125h-160.585938c-2.921874-.039062-5.292968-2.402343-5.332031-5.332031zm0 0"/><path d="m64 180.917969c5.890625 0 10.667969-4.777344 10.667969-10.664063v-64.003906c0-5.890625-4.777344-10.664062-10.667969-10.664062s-10.664062 4.773437-10.664062 10.664062v64.003906c0 5.886719 4.773437 10.664063 10.664062 10.664063zm0 0"/><path d="m64 74.25c5.890625 0 10.667969-4.773438 10.667969-10.667969v-10.664062c0-5.894531-4.777344-10.667969-10.667969-10.667969s-10.664062 4.773438-10.664062 10.667969v10.664062c0 5.894531 4.773437 10.667969 10.664062 10.667969zm0 0"/></svg>